<mxfile host="app.diagrams.net" agent="Mozilla/5.0 (X11; Ubuntu; Linux x86_64; rv:141.0) Gecko/20100101 Firefox/141.0" version="28.1.1">
  <diagram name="Page-1" id="rZxvO-xGBDbaET3Zqq4u">
    <mxGraphModel dx="507" dy="464" grid="1" gridSize="10" guides="1" tooltips="1" connect="1" arrows="1" fold="1" page="1" pageScale="1" pageWidth="850" pageHeight="1100" math="0" shadow="0">
      <root>
        <mxCell id="0" />
        <mxCell id="1" parent="0" />
        <mxCell id="CZZduc1jLrHA5I96F7Oo-13" style="edgeStyle=orthogonalEdgeStyle;rounded=0;orthogonalLoop=1;jettySize=auto;html=1;entryX=0;entryY=0.5;entryDx=0;entryDy=0;" edge="1" parent="1" source="CZZduc1jLrHA5I96F7Oo-7" target="CZZduc1jLrHA5I96F7Oo-15">
          <mxGeometry relative="1" as="geometry">
            <mxPoint x="460" y="343.25" as="targetPoint" />
          </mxGeometry>
        </mxCell>
        <mxCell id="CZZduc1jLrHA5I96F7Oo-7" value="" style="html=1;verticalLabelPosition=bottom;align=center;labelBackgroundColor=#ffffff;verticalAlign=top;strokeWidth=2;strokeColor=#0080F0;shadow=0;dashed=0;shape=mxgraph.ios7.icons.mail;" vertex="1" parent="1">
          <mxGeometry x="170" y="330" width="50" height="26.5" as="geometry" />
        </mxCell>
        <mxCell id="CZZduc1jLrHA5I96F7Oo-10" value="&lt;font style=&quot;font-size: 20px;&quot;&gt;Ciao sono Alex&lt;/font&gt;" style="text;html=1;align=center;verticalAlign=middle;resizable=0;points=[];autosize=1;strokeColor=none;fillColor=none;" vertex="1" parent="1">
          <mxGeometry x="115" y="363" width="160" height="40" as="geometry" />
        </mxCell>
        <mxCell id="CZZduc1jLrHA5I96F7Oo-11" value="" style="html=1;verticalLabelPosition=bottom;align=center;labelBackgroundColor=#ffffff;verticalAlign=top;strokeWidth=2;strokeColor=#0080F0;shadow=0;dashed=0;shape=mxgraph.ios7.icons.mail;" vertex="1" parent="1">
          <mxGeometry x="465" y="330" width="50" height="26.5" as="geometry" />
        </mxCell>
        <mxCell id="CZZduc1jLrHA5I96F7Oo-12" value="&lt;font style=&quot;font-size: 20px;&quot;&gt;-QnbB^DUxQxUP^&lt;/font&gt;" style="text;html=1;align=center;verticalAlign=middle;resizable=0;points=[];autosize=1;strokeColor=none;fillColor=none;" vertex="1" parent="1">
          <mxGeometry x="395" y="363" width="190" height="40" as="geometry" />
        </mxCell>
        <mxCell id="CZZduc1jLrHA5I96F7Oo-16" style="edgeStyle=orthogonalEdgeStyle;rounded=0;orthogonalLoop=1;jettySize=auto;html=1;" edge="1" parent="1" source="CZZduc1jLrHA5I96F7Oo-15">
          <mxGeometry relative="1" as="geometry">
            <mxPoint x="460.0000000000001" y="343.0000000000001" as="targetPoint" />
          </mxGeometry>
        </mxCell>
        <mxCell id="CZZduc1jLrHA5I96F7Oo-15" value="&lt;font style=&quot;font-size: 20px;&quot;&gt;Cifratura&lt;/font&gt;" style="rounded=1;whiteSpace=wrap;html=1;" vertex="1" parent="1">
          <mxGeometry x="300" y="283" width="90" height="120" as="geometry" />
        </mxCell>
      </root>
    </mxGraphModel>
  </diagram>
</mxfile>
